<svg xmlns="http://www.w3.org/2000/svg" viewBox="0 0 64 64" fill="none">
  <!-- Rounded cream tile matching product icon -->
  <rect x="2" y="2" width="60" height="60" rx="14" fill="#F4F2EE"/>
  <!-- Soft page glow -->
  <ellipse cx="32" cy="40" rx="10" ry="14" fill="#D7E7F8" opacity="0.55"/>
  <!-- Open book outline (deep blue) -->
  <path
    d="M18 20.5c0-1.2.7-2 1.8-2.2 4.3-.8 7.4.2 10.2 2.6v24.2c-3-2.2-6.2-3-10.2-2.3-1.1.2-1.8 1-1.8 2.1V20.5Z"
    fill="#FFFFFF"
    stroke="#1F3F73"
    stroke-width="3.2"
    stroke-linejoin="round"
  />
  <path
    d="M46 20.5c0-1.2-.7-2-1.8-2.2-4.3-.8-7.4.2-10.2 2.6v24.2c3-2.2 6.2-3 10.2-2.3 1.1.2 1.8 1 1.8 2.1V20.5Z"
    fill="#FFFFFF"
    stroke="#1F3F73"
    stroke-width="3.2"
    stroke-linejoin="round"
  />
  <!-- Spine gap -->
  <path d="M32 21v24" stroke="#1F3F73" stroke-width="1.4" stroke-linecap="round" opacity="0.35"/>
</svg>
